<svg width="450" xmlns="http://www.w3.org/2000/svg" height="455.679" id="screenshot-fe35f8c2-d624-802a-8008-5b73a6a8cf06" viewBox="-75 -6 450 455.679" xmlns:xlink="http://www.w3.org/1999/xlink" fill="none" version="1.1"><g id="shape-fe35f8c2-d624-802a-8008-5b73a6a8cf06"><g class="frame-container-wrapper"><g class="frame-container-blur"><g class="frame-container-shadows"><g fill="none"><g class="fills" id="fills-fe35f8c2-d624-802a-8008-5b73a6a8cf06"><rect rx="0" ry="0" x="0" y="0" width="375" height="375" transform="matrix(1.000000, 0.000000, 0.000000, 1.000000, 0.000000, 0.000000)" class="frame-background"/></g><g class="frame-children"><g id="shape-fe35f8c2-d624-802a-8008-5b73751115ab"><g class="fills" id="fills-fe35f8c2-d624-802a-8008-5b73751115ab"><path d="M187.5,0C290.98406982421875,0,375,84.01593017578125,375,187.5C375,290.98406982421875,290.98406982421875,375,187.5,375C84.01593017578125,375,0,290.98406982421875,0,187.5C0,84.01593017578125,84.01593017578125,0,187.5,0M187.5,117C148.58999633789062,117,117,148.5899658203125,117,187.5C117,226.4100341796875,148.58999633789062,258,187.5,258C226.41000366210938,258,258,226.4100341796875,258,187.5C258,148.5899658203125,226.41000366210938,117,187.5,117" style="fill: rgb(26, 15, 46); fill-opacity: 1;"/></g></g><g id="shape-fe35f8c2-d624-802a-8008-5b737b22612a"><g class="fills" id="fills-fe35f8c2-d624-802a-8008-5b737b22612a"><path d="M199.3212890625,256.951416015625C243.51589965820312,286.07586669921875,298.2579345703125,295.100830078125,349.280029296875,282.02398681640625C337.19512939453125,302.71856689453125,320.8385009765625,321.447509765625,300.4609375,336.8092041015625C217.8270263671875,399.103515625,100.16366577148438,382.59027099609375,37.869354248046875,299.95623779296875C-24.424957275390625,217.32232666015625,-7.9116973876953125,99.658935546875,74.72225952148438,37.36468505859375C95.07504272460938,22.0216064453125,117.55276489257812,11.45928955078125,140.80487060546875,5.488128662109375C114.11587524414062,51.061767578125,107.76593017578125,106.40277099609375,123.80560302734375,157.0635986328125C119.46429443359375,166.33587646484375,117,176.6324462890625,117,187.5C117,226.4100341796875,148.58999633789062,258,187.5,258C191.52719116210938,258,195.4759521484375,257.66162109375,199.31939697265625,257.01171875" style="fill: rgb(77, 38, 143); fill-opacity: 1;"/></g></g><g id="shape-fe35f8c2-d624-802a-8008-5b74618c7fba"><g class="fills" id="fills-fe35f8c2-d624-802a-8008-5b74618c7fba"><ellipse cx="187" cy="187" rx="71" ry="71" transform="matrix(1.000000, 0.000000, 0.000000, 1.000000, 0.000000, 0.000000)" style="fill: rgb(197, 180, 229); fill-opacity: 1;"/></g></g><g id="shape-fe35f8c2-d624-802a-8008-5b70725d4190"><g class="fills" id="fills-fe35f8c2-d624-802a-8008-5b70725d4190"><path d="M224.55001831054688,149.63104248046875C225.78500366210938,150.6224365234375,226.5,152.1175537109375,226.5,153.6939697265625L226.5,203.0980224609375C226.5,210.2811279296875,219.51251220703125,216.09918212890625,210.89999389648438,216.09918212890625C202.2874755859375,216.09918212890625,195.30001831054688,210.2811279296875,195.30001831054688,203.0980224609375C195.30001831054688,195.91497802734375,202.2874755859375,190.096923828125,210.89999389648438,190.096923828125C212.72000122070312,190.096923828125,214.4749755859375,190.35693359375,216.10000610351562,190.844482421875L216.10000610351562,171.87921142578125L179.69998168945312,179.97235107421875L179.69998168945312,213.49896240234375C179.69998168945312,220.68206787109375,172.7125244140625,226.5,164.10000610351562,226.5C155.48748779296875,226.5,148.5,220.68206787109375,148.5,213.49896240234375C148.5,206.31585693359375,155.48748779296875,200.4979248046875,164.10000610351562,200.4979248046875C165.92001342773438,200.4979248046875,167.67498779296875,200.75787353515625,169.29998779296875,201.245361328125L169.29998779296875,164.09478759765625C169.29998779296875,161.65716552734375,170.99002075195312,159.54443359375,173.37875366210938,159.0244140625L220.17874145507812,148.62347412109375C221.72250366210938,148.2822265625,223.33126831054688,148.656005859375,224.56625366210938,149.6473388671875Z" style="fill: rgb(77, 38, 143); fill-opacity: 1;"/></g></g><g id="shape-fe35f8c2-d624-802a-8008-5b74bce73cbc"><g class="fills" id="fills-fe35f8c2-d624-802a-8008-5b74bce73cbc"><ellipse cx="187.0000000000001" cy="187.0000000000001" rx="172.0000000000001" ry="172.0000000000001" transform="matrix(1.000000, 0.000000, 0.000000, 1.000000, 0.000000, 0.000000)"/></g><g id="strokes-0ca3ad42-8908-8025-8008-5b77f996f142-fe35f8c2-d624-802a-8008-5b74bce73cbc" class="strokes"><g class="inner-stroke-shape" transform="matrix(1.000000, 0.000000, 0.000000, 1.000000, 0.000000, 0.000000)"><defs><clipPath id="inner-stroke-render-6-fe35f8c2-d624-802a-8008-5b74bce73cbc-0"><use href="#stroke-shape-render-6-fe35f8c2-d624-802a-8008-5b74bce73cbc-0"/></clipPath><ellipse cx="187.0000000000001" cy="187.0000000000001" rx="172.0000000000001" ry="172.0000000000001" id="stroke-shape-render-6-fe35f8c2-d624-802a-8008-5b74bce73cbc-0" style="fill: none; stroke-width: 2; stroke: rgb(56, 31, 100); stroke-opacity: 1;"/></defs><use href="#stroke-shape-render-6-fe35f8c2-d624-802a-8008-5b74bce73cbc-0" clip-path="url('#inner-stroke-render-6-fe35f8c2-d624-802a-8008-5b74bce73cbc-0')"/></g></g></g><g id="shape-fe35f8c2-d624-802a-8008-5b74e6303503"><g class="fills" id="fills-fe35f8c2-d624-802a-8008-5b74e6303503"><ellipse cx="187.5" cy="187.49999999999994" rx="149.5" ry="153.00000000000006" transform="matrix(1.000000, 0.000000, 0.000000, 1.000000, 0.000000, 0.000000)"/></g><g id="strokes-0ca3ad42-8908-8025-8008-5b77f997a5b4-fe35f8c2-d624-802a-8008-5b74e6303503" class="strokes"><g class="inner-stroke-shape" transform="matrix(1.000000, 0.000000, 0.000000, 1.000000, 0.000000, 0.000000)"><defs><clipPath id="inner-stroke-render-7-fe35f8c2-d624-802a-8008-5b74e6303503-0"><use href="#stroke-shape-render-7-fe35f8c2-d624-802a-8008-5b74e6303503-0"/></clipPath><ellipse cx="187.5" cy="187.49999999999994" rx="149.5" ry="153.00000000000006" id="stroke-shape-render-7-fe35f8c2-d624-802a-8008-5b74e6303503-0" style="fill: none; stroke-width: 2; stroke: rgb(56, 31, 100); stroke-opacity: 1;"/></defs><use href="#stroke-shape-render-7-fe35f8c2-d624-802a-8008-5b74e6303503-0" clip-path="url('#inner-stroke-render-7-fe35f8c2-d624-802a-8008-5b74e6303503-0')"/></g></g></g><g id="shape-fe35f8c2-d624-802a-8008-5b750dbf742a"><g class="fills" id="fills-fe35f8c2-d624-802a-8008-5b750dbf742a"><ellipse cx="187.00000000000006" cy="187" rx="129.00000000000006" ry="129" transform="matrix(1.000000, 0.000000, 0.000000, 1.000000, 0.000000, 0.000000)"/></g><g id="strokes-0ca3ad42-8908-8025-8008-5b77f997db8d-fe35f8c2-d624-802a-8008-5b750dbf742a" class="strokes"><g class="inner-stroke-shape" transform="matrix(1.000000, 0.000000, 0.000000, 1.000000, 0.000000, 0.000000)"><defs><clipPath id="inner-stroke-render-8-fe35f8c2-d624-802a-8008-5b750dbf742a-0"><use href="#stroke-shape-render-8-fe35f8c2-d624-802a-8008-5b750dbf742a-0"/></clipPath><ellipse cx="187.00000000000006" cy="187" rx="129.00000000000006" ry="129" id="stroke-shape-render-8-fe35f8c2-d624-802a-8008-5b750dbf742a-0" style="fill: none; stroke-width: 2; stroke: rgb(56, 31, 100); stroke-opacity: 1;"/></defs><use href="#stroke-shape-render-8-fe35f8c2-d624-802a-8008-5b750dbf742a-0" clip-path="url('#inner-stroke-render-8-fe35f8c2-d624-802a-8008-5b750dbf742a-0')"/></g></g></g><g id="shape-fe35f8c2-d624-802a-8008-5b750dbf742c"><g class="fills" id="fills-fe35f8c2-d624-802a-8008-5b750dbf742c"><ellipse cx="187.0000000000001" cy="187.00000000000003" rx="108" ry="107.99999999999997" transform="matrix(1.000000, 0.000000, 0.000000, 1.000000, 0.000000, 0.000000)"/></g><g id="strokes-0ca3ad42-8908-8025-8008-5b77f9987b19-fe35f8c2-d624-802a-8008-5b750dbf742c" class="strokes"><g class="inner-stroke-shape" transform="matrix(1.000000, 0.000000, 0.000000, 1.000000, 0.000000, 0.000000)"><defs><clipPath id="inner-stroke-render-9-fe35f8c2-d624-802a-8008-5b750dbf742c-0"><use href="#stroke-shape-render-9-fe35f8c2-d624-802a-8008-5b750dbf742c-0"/></clipPath><ellipse cx="187.0000000000001" cy="187.00000000000003" rx="108" ry="107.99999999999997" id="stroke-shape-render-9-fe35f8c2-d624-802a-8008-5b750dbf742c-0" style="fill: none; stroke-width: 2; stroke: rgb(56, 31, 100); stroke-opacity: 1;"/></defs><use href="#stroke-shape-render-9-fe35f8c2-d624-802a-8008-5b750dbf742c-0" clip-path="url('#inner-stroke-render-9-fe35f8c2-d624-802a-8008-5b750dbf742c-0')"/></g></g></g><g id="shape-fe35f8c2-d624-802a-8008-5b754fbed314"><g class="fills" id="fills-fe35f8c2-d624-802a-8008-5b754fbed314"><ellipse cx="187.5" cy="187.5" rx="87.5" ry="83.5" transform="matrix(1.000000, 0.000000, 0.000000, 1.000000, 0.000000, 0.000000)"/></g><g id="strokes-0ca3ad42-8908-8025-8008-5b77f998a3cf-fe35f8c2-d624-802a-8008-5b754fbed314" class="strokes"><g class="inner-stroke-shape" transform="matrix(1.000000, 0.000000, 0.000000, 1.000000, 0.000000, 0.000000)"><defs><clipPath id="inner-stroke-render-10-fe35f8c2-d624-802a-8008-5b754fbed314-0"><use href="#stroke-shape-render-10-fe35f8c2-d624-802a-8008-5b754fbed314-0"/></clipPath><ellipse cx="187.5" cy="187.5" rx="87.5" ry="83.5" id="stroke-shape-render-10-fe35f8c2-d624-802a-8008-5b754fbed314-0" style="fill: none; stroke-width: 2; stroke: rgb(56, 31, 100); stroke-opacity: 1;"/></defs><use href="#stroke-shape-render-10-fe35f8c2-d624-802a-8008-5b754fbed314-0" clip-path="url('#inner-stroke-render-10-fe35f8c2-d624-802a-8008-5b754fbed314-0')"/></g></g></g></g></g></g></g></g></g></svg>